<svg xmlns="http://www.w3.org/2000/svg" viewBox="0 0 32 32">
  <defs>
    <linearGradient id="p" x1="0%" y1="0%" x2="100%" y2="100%">
      <stop offset="0%" stop-color="#1a1a2e"/>
      <stop offset="100%" stop-color="#16213e"/>
    </linearGradient>
  </defs>
  <!-- Klassische Mal-Palette -->
  <path
    fill="url(#p)"
    stroke="#ffd93d"
    stroke-width="1.25"
    stroke-linejoin="round"
    d="M26.5 12c0-5-5.2-9-11.2-9C8.8 3 4 7.8 4 14c0 4 2.2 7.4 5.5 9.2L8.8 27c-.2.8.4 1.5 1.2 1.4l5.8-1.4c1.2.5 2.5.8 3.9.8 6.3 0 11.5-4.8 11.5-10.8 0-2.8-1-5.4-2.7-7.2z"
  />
  <ellipse cx="12" cy="13" rx="2.4" ry="2.7" fill="#0f3460" opacity=".9"/>
  <circle cx="19" cy="10" r="2.6" fill="#ff3b3b"/>
  <circle cx="22" cy="15" r="2.3" fill="#ffd600"/>
  <circle cx="19.5" cy="20" r="2.2" fill="#3ddb4a"/>
  <circle cx="14" cy="21" r="2" fill="#1e90ff"/>
  <circle cx="16.5" cy="15" r="1.8" fill="#c77dff"/>
</svg>
